<?xml version="1.0" encoding="utf-8"?>
<!-- Generator: Adobe Illustrator 23.0.3, SVG Export Plug-In . SVG Version: 6.00 Build 0) -->
<svg version="1.1" id="Logotype" xmlns="http://www.w3.org/2000/svg" xmlns:xlink="http://www.w3.org/1999/xlink" x="0px" y="0px" width="100%" viewBox="252 276 340 44" style="enable-background:new 0 0 841.9 595.3;" xml:space="preserve">
<g>
<path d="M295.8,295.9c-0.9-0.3-2.3-0.5-3.1-0.5c-0.5,0-0.8,0-1.1,0l-0.4,0c0.3-1.2,0.4-1.8,0.4-2.3c0-1.1-0.6-1.6-2-1.8
c-0.7-0.1-1.7-0.3-3.3-0.3c-3.8,0-7.7,0.9-11.5,3.2c-3.7-2.3-7.7-3.2-11.5-3.2c-1.5,0-2.6,0.2-3.3,0.3c-1.4,0.2-2,0.7-2,1.8
c0,0.5,0.1,1.1,0.4,2.3l-0.4,0c-0.3,0-0.6,0-1.1,0c-0.8,0-2.2,0.2-3.1,0.5c-1.2,0.4-1.7,1.4-0.8,3.1c1.1,2.2,6.9,13.3,6.9,13.3
l0.2-0.1c4-1.1,10.5-1.4,14.2-1.4h0.5h0.5c3.7,0,10.2,0.3,14.2,1.4l0.2,0.1c0,0,5.8-11.1,6.9-13.3
C297.5,297.2,296.9,296.3,295.8,295.9z M262.5,309.7c-0.3,0-1.2,0.2-1.5,0.3l-0.2,0l-5.8-12.2c1-0.4,2.9-0.5,4-0.3l3.7,12.2
L262.5,309.7z M273.6,308.8h-0.7c-3,0-5.2,0.2-7.4,0.4l-0.8,0.1l-0.2-0.5l-4-15.3c4-0.8,9.2,0,13,2.4V308.8z M284.8,309.4l-0.8-0.1
c-2.1-0.2-4.4-0.4-7.4-0.4h-0.7V296c3.8-2.4,9.1-3.2,13-2.4l-4,15.3L284.8,309.4z M288.7,310l-0.2,0c-0.3-0.1-1.2-0.2-1.5-0.3
l-0.2,0l3.7-12.2c1-0.2,3-0.1,4,0.3L288.7,310z"/>
<path d="M270.7,287c0,1.8,1.8,3.3,4,3.3c2.3,0,4.1-1.5,4.1-3.3c0-1.5-1.3-2.8-3.1-3.1v-2.4h2.5v-2h-2.5V277h-2v2.5h-2.5v2h2.5v2.4
C272,284.2,270.7,285.5,270.7,287z M274.7,285.3c1.3,0,2.3,0.8,2.3,1.7c0,0.9-1,1.6-2.3,1.6c-1.3,0-2.3-0.7-2.3-1.6
C272.4,286.1,273.5,285.3,274.7,285.3z"/>
<path d="M259.8,315.6l0.1,2.3c0,0,4.3-1.6,14.9-1.6c10.6,0,14.7,1.6,14.7,1.6l0.1-2.3c0,0-4.1-1.6-14.8-1.6
S259.8,315.6,259.8,315.6z"/>
<path d="M321,296.5c0.6-0.2,1.1-0.5,1.5-0.8c0.4-0.3,0.7-0.7,0.9-1.2c0.2-0.5,0.3-1,0.3-1.5c0-1.5-0.9-2.5-2.7-2.9
c0.4-0.1,0.7-0.3,1-0.5c0.3-0.2,0.5-0.4,0.7-0.7c0.2-0.2,0.3-0.5,0.4-0.8c0.1-0.3,0.1-0.6,0.1-0.9c0-0.5-0.1-1-0.3-1.4
c-0.2-0.4-0.5-0.8-0.9-1.1s-0.9-0.5-1.5-0.7c-0.6-0.2-1.3-0.2-2.2-0.2h-4.5v13h4.9C319.8,296.8,320.4,296.7,321,296.5z
M316.5,285.7h2.1c0.8,0,1.4,0.1,1.8,0.4s0.6,0.8,0.6,1.4c0,0.7-0.2,1.1-0.6,1.4c-0.4,0.3-1,0.5-1.9,0.5h-1.9V285.7z M316.5,294.9
v-3.8h2.4c0.4,0,0.8,0,1.1,0.1s0.6,0.2,0.7,0.4c0.2,0.2,0.3,0.4,0.4,0.6c0.1,0.2,0.1,0.5,0.1,0.8c0,0.3,0,0.5-0.1,0.8
c-0.1,0.2-0.2,0.5-0.4,0.6c-0.2,0.2-0.4,0.3-0.7,0.4c-0.3,0.1-0.7,0.2-1.1,0.2H316.5z"/>
<path d="M328.8,297.2l0.7-0.9c0.5,0.2,1,0.4,1.5,0.5s1.1,0.2,1.7,0.2c1,0,1.9-0.2,2.7-0.5c0.8-0.3,1.5-0.8,2.1-1.4s1-1.3,1.3-2.1
c0.3-0.8,0.5-1.7,0.5-2.7c0-1-0.2-1.9-0.5-2.7s-0.8-1.5-1.4-2.1l1.6-2.2h-1.2c-0.1,0-0.2,0-0.3,0c-0.1,0-0.2,0.1-0.2,0.1
c-0.1,0-0.1,0.1-0.2,0.2c-0.1,0.1-0.1,0.2-0.2,0.3l-0.5,0.7c-0.5-0.3-1-0.5-1.6-0.7c-0.6-0.2-1.2-0.2-1.9-0.2c-1,0-1.9,0.2-2.7,0.5
c-0.8,0.3-1.5,0.8-2.1,1.4c-0.6,0.6-1,1.3-1.3,2.1c-0.3,0.8-0.5,1.7-0.5,2.7c0,1.1,0.2,2,0.6,2.9c0.4,0.9,0.9,1.6,1.6,2.2l-1.8,2.4
h1c0.2,0,0.5,0,0.7-0.1C328.4,297.6,328.6,297.4,328.8,297.2z M336.6,288.6c0.1,0.5,0.2,1.1,0.2,1.7c0,0.7-0.1,1.4-0.3,1.9
c-0.2,0.6-0.5,1-0.8,1.4c-0.4,0.4-0.8,0.7-1.3,0.9s-1.1,0.3-1.7,0.3c-0.7,0-1.4-0.1-1.9-0.4l5.2-7.2
C336.2,287.7,336.4,288.1,336.6,288.6z M328.8,288.4c0.2-0.6,0.5-1,0.8-1.4c0.4-0.4,0.8-0.7,1.3-0.9c0.5-0.2,1.1-0.3,1.7-0.3
c0.4,0,0.8,0,1.2,0.1c0.4,0.1,0.7,0.2,1,0.4l-5.3,7.3c-0.3-0.4-0.6-0.9-0.8-1.4c-0.2-0.5-0.3-1.2-0.3-1.9
C328.6,289.6,328.7,289,328.8,288.4z"/>
<path d="M344.7,291.7h1c0.2,0,0.4,0,0.5,0.1c0.1,0.1,0.2,0.2,0.3,0.3l2.7,4.2c0.2,0.3,0.5,0.5,0.9,0.5h2.2l-3.3-4.8
c-0.1-0.2-0.2-0.3-0.4-0.4s-0.3-0.2-0.4-0.3c0.5-0.1,0.9-0.3,1.2-0.6c0.4-0.2,0.7-0.5,0.9-0.8s0.4-0.7,0.6-1.1
c0.1-0.4,0.2-0.8,0.2-1.2c0-0.6-0.1-1.1-0.3-1.5c-0.2-0.5-0.5-0.9-0.9-1.2c-0.4-0.3-0.9-0.6-1.6-0.8c-0.6-0.2-1.4-0.3-2.3-0.3h-4
v13h2.4V291.7z M344.7,285.7h1.5c0.9,0,1.6,0.2,2,0.5c0.4,0.4,0.7,0.9,0.7,1.5c0,0.3-0.1,0.6-0.2,0.9c-0.1,0.3-0.3,0.5-0.5,0.7
c-0.2,0.2-0.5,0.4-0.8,0.5c-0.3,0.1-0.7,0.2-1.2,0.2h-1.5V285.7z"/>
<path d="M363.6,296.4c0.1,0.2,0.2,0.3,0.4,0.3c0.1,0.1,0.3,0.1,0.5,0.1h1.2v-13h-2.1v7.9c0,0.2,0,0.4,0,0.6s0,0.4,0,0.6l-6.8-8.7
c-0.1-0.1-0.1-0.2-0.2-0.2c-0.1-0.1-0.1-0.1-0.2-0.1c-0.1,0-0.1,0-0.2-0.1c-0.1,0-0.2,0-0.3,0h-1.3v13h2.1v-8c0-0.3,0-0.7-0.1-1.1
L363.6,296.4z"/>
<polygon points="377.8,294.9 372,294.9 372,291.2 376.5,291.2 376.5,289.3 372,289.3 372,285.7 377.8,285.7 377.8,283.8
369.5,283.8 369.5,296.8 377.8,296.8 "/>
<rect x="380.4" y="290.5" width="4.7" height="1.9"/>
<path d="M404.3,295.1c0.6-0.6,1-1.3,1.3-2.1c0.3-0.8,0.5-1.7,0.5-2.7c0-0.6-0.1-1.2-0.2-1.8c-0.1-0.6-0.3-1.1-0.6-1.6
c-0.3-0.5-0.6-0.9-1-1.3c-0.4-0.4-0.8-0.7-1.3-1c-0.5-0.3-1-0.5-1.6-0.6c-0.6-0.2-1.2-0.2-1.9-0.2c-1,0-1.9,0.2-2.7,0.5
c-0.8,0.3-1.5,0.8-2.1,1.4c-0.6,0.6-1,1.3-1.3,2.1c-0.3,0.8-0.5,1.7-0.5,2.7s0.2,1.8,0.5,2.7c0.3,0.8,0.8,1.5,1.3,2.1
s1.3,1.1,2.1,1.4c0.8,0.3,1.7,0.5,2.7,0.5c1,0,1.9-0.2,2.7-0.5C403,296.1,403.7,295.7,404.3,295.1z M399.5,294.9
c-0.6,0-1.2-0.1-1.7-0.3c-0.5-0.2-0.9-0.5-1.3-0.9c-0.4-0.4-0.6-0.9-0.8-1.4c-0.2-0.6-0.3-1.2-0.3-1.9s0.1-1.4,0.3-1.9
c0.2-0.6,0.5-1,0.8-1.4c0.4-0.4,0.8-0.7,1.3-0.9c0.5-0.2,1.1-0.3,1.7-0.3s1.2,0.1,1.7,0.3s0.9,0.5,1.3,0.9c0.4,0.4,0.6,0.9,0.8,1.4
c0.2,0.6,0.3,1.2,0.3,1.9s-0.1,1.4-0.3,1.9c-0.2,0.6-0.5,1-0.8,1.4c-0.4,0.4-0.8,0.7-1.3,0.9S400.1,294.9,399.5,294.9z"/>
<path d="M415.3,297c0.9,0,1.7-0.1,2.4-0.3c0.7-0.2,1.5-0.6,2.1-1.1v-5.3h-4.3v1.4c0,0.1,0,0.2,0.1,0.3c0.1,0.1,0.2,0.1,0.4,0.1h1.6
v2.4c-0.4,0.2-0.7,0.3-1.1,0.4c-0.4,0.1-0.8,0.2-1.3,0.2c-0.7,0-1.3-0.1-1.8-0.3s-1-0.5-1.4-0.9c-0.4-0.4-0.7-0.9-0.9-1.5
s-0.3-1.2-0.3-2c0-0.7,0.1-1.3,0.3-1.9c0.2-0.6,0.5-1,0.8-1.4c0.4-0.4,0.8-0.7,1.3-0.9c0.5-0.2,1.1-0.3,1.7-0.3c0.4,0,0.7,0,1,0.1
c0.3,0.1,0.6,0.1,0.8,0.2s0.5,0.2,0.7,0.3c0.2,0.1,0.4,0.2,0.6,0.3c0.2,0.1,0.4,0.2,0.6,0.1c0.2,0,0.3-0.1,0.4-0.3l0.7-1.1
c-0.3-0.3-0.6-0.5-0.9-0.7c-0.3-0.2-0.7-0.4-1.1-0.5c-0.4-0.1-0.8-0.3-1.3-0.3s-1-0.1-1.5-0.1c-1,0-2,0.2-2.8,0.5s-1.5,0.8-2.1,1.4
s-1,1.3-1.4,2.1c-0.3,0.8-0.5,1.7-0.5,2.7c0,1,0.2,1.9,0.5,2.7s0.8,1.5,1.4,2.1c0.6,0.6,1.3,1,2.2,1.4
C413.3,296.8,414.3,297,415.3,297z"/>
<path d="M322.3,311.6c0,0.5-0.1,0.9-0.2,1.3c-0.1,0.4-0.3,0.7-0.6,1s-0.6,0.5-0.9,0.7c-0.4,0.2-0.8,0.2-1.3,0.2s-0.9-0.1-1.3-0.2
c-0.4-0.2-0.7-0.4-0.9-0.7s-0.5-0.6-0.6-1s-0.2-0.9-0.2-1.3v-7.8h-2.4v7.8c0,0.8,0.1,1.5,0.4,2.1s0.6,1.2,1.1,1.7
c0.5,0.5,1,0.8,1.7,1.1c0.7,0.3,1.4,0.4,2.3,0.4c0.8,0,1.6-0.1,2.2-0.4c0.7-0.3,1.2-0.6,1.7-1.1c0.5-0.5,0.8-1,1.1-1.7
s0.4-1.4,0.4-2.1v-7.8h-2.4V311.6z"/>
<path d="M337.2,311.7c0,0.2,0,0.4,0,0.6s0,0.4,0,0.6l-6.8-8.7c-0.1-0.1-0.1-0.2-0.2-0.2c-0.1-0.1-0.1-0.1-0.2-0.1
c-0.1,0-0.1,0-0.2-0.1c-0.1,0-0.2,0-0.3,0h-1.3v13h2.1v-8c0-0.3,0-0.7-0.1-1.1l6.8,8.7c0.1,0.2,0.2,0.3,0.4,0.3
c0.1,0.1,0.3,0.1,0.5,0.1h1.2v-13h-2.1V311.7z"/>
<path d="M352.9,305.6c-0.6-0.6-1.3-1-2.1-1.3c-0.8-0.3-1.7-0.5-2.7-0.5h-5v13h5c1,0,1.9-0.2,2.7-0.5c0.8-0.3,1.5-0.8,2.1-1.3
c0.6-0.6,1-1.3,1.3-2.1s0.5-1.7,0.5-2.6s-0.2-1.8-0.5-2.6S353.5,306.2,352.9,305.6z M351.9,312.2c-0.2,0.6-0.5,1-0.8,1.4
c-0.4,0.4-0.8,0.7-1.3,0.9c-0.5,0.2-1.1,0.3-1.7,0.3h-2.5v-9.2h2.5c0.6,0,1.2,0.1,1.7,0.3c0.5,0.2,0.9,0.5,1.3,0.9
c0.4,0.4,0.6,0.9,0.8,1.4c0.2,0.6,0.3,1.2,0.3,1.9S352.1,311.7,351.9,312.2z"/>
<polygon points="357.7,316.8 365.9,316.8 365.9,314.9 360.2,314.9 360.2,311.2 364.7,311.2 364.7,309.3 360.2,309.3 360.2,305.7
365.9,305.7 365.9,303.8 357.7,303.8 "/>
<path d="M375.5,311.6c-0.1-0.1-0.3-0.2-0.4-0.3c0.5-0.1,0.9-0.3,1.2-0.6c0.4-0.2,0.7-0.5,0.9-0.8s0.4-0.7,0.6-1.1
c0.1-0.4,0.2-0.8,0.2-1.2c0-0.6-0.1-1.1-0.3-1.5c-0.2-0.5-0.5-0.9-0.9-1.2c-0.4-0.3-0.9-0.6-1.6-0.8c-0.6-0.2-1.4-0.3-2.3-0.3h-4
v13h2.4v-5.1h1c0.2,0,0.4,0,0.5,0.1c0.1,0.1,0.2,0.2,0.3,0.3l2.7,4.2c0.2,0.3,0.5,0.5,0.9,0.5h2.2l-3.3-4.8
C375.8,311.8,375.7,311.7,375.5,311.6z M374.1,309.8c-0.3,0.1-0.7,0.2-1.2,0.2h-1.5v-4.3h1.5c0.9,0,1.6,0.2,2,0.5
c0.4,0.4,0.7,0.9,0.7,1.5c0,0.3-0.1,0.6-0.2,0.9c-0.1,0.3-0.3,0.5-0.5,0.7C374.7,309.6,374.4,309.7,374.1,309.8z"/>
<path d="M389.7,304c-0.1,0.1-0.2,0.2-0.3,0.4l-3.1,7.9c-0.1,0.3-0.2,0.5-0.3,0.9c-0.1,0.3-0.2,0.6-0.2,1c-0.1-0.3-0.2-0.7-0.3-1
c-0.1-0.3-0.2-0.6-0.3-0.9l-3.1-7.9c-0.1-0.2-0.2-0.3-0.3-0.4c-0.1-0.1-0.3-0.2-0.5-0.2h-1.9l5.3,13h2.2l5.3-13h-2
C390,303.8,389.9,303.9,389.7,304z"/>
<rect x="394.4" y="303.8" width="2.4" height="13"/>
<path d="M407.5,310.4c-0.3-0.3-0.6-0.5-1-0.6c-0.4-0.2-0.7-0.3-1.1-0.5s-0.7-0.2-1.1-0.4c-0.4-0.1-0.7-0.2-1-0.4
c-0.3-0.1-0.5-0.3-0.7-0.5s-0.3-0.5-0.3-0.8c0-0.2,0-0.5,0.1-0.7c0.1-0.2,0.2-0.4,0.4-0.5c0.2-0.1,0.4-0.3,0.6-0.3s0.5-0.1,0.9-0.1
c0.4,0,0.7,0,1,0.1c0.3,0.1,0.5,0.2,0.7,0.3c0.2,0.1,0.4,0.2,0.5,0.3c0.1,0.1,0.3,0.1,0.4,0.1c0.1,0,0.2,0,0.3-0.1
c0.1-0.1,0.2-0.1,0.2-0.3l0.6-1.1c-0.5-0.4-1-0.8-1.7-1c-0.6-0.2-1.4-0.4-2.1-0.4c-0.7,0-1.3,0.1-1.8,0.3s-1,0.5-1.3,0.8
s-0.6,0.7-0.8,1.2c-0.2,0.4-0.3,0.9-0.3,1.4c0,0.6,0.1,1.1,0.3,1.5c0.2,0.4,0.4,0.7,0.7,1c0.3,0.3,0.6,0.5,1,0.7s0.7,0.3,1.1,0.4
s0.7,0.2,1.1,0.3c0.4,0.1,0.7,0.2,1,0.4c0.3,0.1,0.5,0.3,0.7,0.5s0.3,0.5,0.3,0.8c0,0.6-0.2,1.1-0.6,1.4s-0.9,0.5-1.6,0.5
c-0.5,0-0.8-0.1-1.2-0.2s-0.6-0.3-0.8-0.4c-0.2-0.2-0.4-0.3-0.6-0.4c-0.2-0.1-0.3-0.2-0.5-0.2c-0.1,0-0.2,0-0.3,0.1
c-0.1,0.1-0.2,0.1-0.2,0.2l-0.7,1.2c0.3,0.3,0.5,0.5,0.9,0.7c0.3,0.2,0.7,0.4,1,0.5c0.4,0.2,0.8,0.3,1.2,0.3s0.8,0.1,1.2,0.1
c0.7,0,1.4-0.1,1.9-0.3c0.6-0.2,1-0.5,1.4-0.9c0.4-0.4,0.7-0.8,0.9-1.3c0.2-0.5,0.3-1.1,0.3-1.7c0-0.5-0.1-1-0.3-1.4
S407.8,310.7,407.5,310.4z"/>
<path d="M420.3,311.7c0,0.2,0,0.4,0,0.6c0,0.2,0,0.4,0,0.6l-6.8-8.7c-0.1-0.1-0.1-0.2-0.2-0.2c-0.1-0.1-0.1-0.1-0.2-0.1
c-0.1,0-0.1,0-0.2-0.1c-0.1,0-0.2,0-0.3,0h-1.3v13h2.1v-8c0-0.3,0-0.7-0.1-1.1l6.8,8.7c0.1,0.2,0.2,0.3,0.4,0.3
c0.1,0.1,0.3,0.1,0.5,0.1h1.2v-13h-2.1V311.7z"/>
<rect x="426.2" y="303.8" width="2.4" height="13"/>
<path d="M441.3,311.7c0,0.2,0,0.4,0,0.6c0,0.2,0,0.4,0,0.6l-6.8-8.7c-0.1-0.1-0.1-0.2-0.2-0.2c-0.1-0.1-0.1-0.1-0.2-0.1
c-0.1,0-0.1,0-0.2-0.1c-0.1,0-0.2,0-0.3,0h-1.3v13h2.1v-8c0-0.3,0-0.7-0.1-1.1l6.8,8.7c0.1,0.2,0.2,0.3,0.4,0.3
c0.1,0.1,0.3,0.1,0.5,0.1h1.2v-13h-2.1V311.7z"/>
<path d="M453.6,311.7c0,0.1,0,0.2,0.1,0.3c0.1,0.1,0.2,0.1,0.4,0.1h1.6v2.4c-0.4,0.2-0.7,0.3-1.1,0.4c-0.4,0.1-0.8,0.2-1.3,0.2
c-0.7,0-1.3-0.1-1.8-0.3s-1-0.5-1.4-0.9s-0.7-0.9-0.9-1.5c-0.2-0.6-0.3-1.2-0.3-2c0-0.7,0.1-1.3,0.3-1.9c0.2-0.6,0.5-1,0.8-1.4
c0.4-0.4,0.8-0.7,1.3-0.9c0.5-0.2,1.1-0.3,1.7-0.3c0.4,0,0.7,0,1,0.1c0.3,0.1,0.6,0.1,0.8,0.2s0.5,0.2,0.7,0.3
c0.2,0.1,0.4,0.2,0.6,0.3c0.2,0.1,0.4,0.2,0.6,0.1s0.3-0.1,0.4-0.3l0.7-1.1c-0.3-0.3-0.6-0.5-0.9-0.7c-0.3-0.2-0.7-0.4-1.1-0.5
c-0.4-0.1-0.8-0.3-1.3-0.3s-1-0.1-1.5-0.1c-1,0-2,0.2-2.8,0.5s-1.5,0.8-2.1,1.4s-1,1.3-1.4,2.1c-0.3,0.8-0.5,1.7-0.5,2.7
c0,1,0.2,1.9,0.5,2.7s0.8,1.5,1.4,2.1c0.6,0.6,1.3,1,2.2,1.4s1.8,0.5,2.9,0.5c0.9,0,1.7-0.1,2.4-0.3c0.7-0.2,1.5-0.6,2.1-1.1v-5.3
h-4.3V311.7z"/>
<path d="M468,310.4c-0.3-0.3-0.6-0.5-1-0.6c-0.4-0.2-0.7-0.3-1.1-0.5s-0.7-0.2-1.1-0.4c-0.4-0.1-0.7-0.2-1-0.4
c-0.3-0.1-0.5-0.3-0.7-0.5s-0.3-0.5-0.3-0.8c0-0.2,0-0.5,0.1-0.7c0.1-0.2,0.2-0.4,0.4-0.5c0.2-0.1,0.4-0.3,0.6-0.3s0.5-0.1,0.9-0.1
c0.4,0,0.7,0,1,0.1c0.3,0.1,0.5,0.2,0.7,0.3c0.2,0.1,0.4,0.2,0.5,0.3c0.1,0.1,0.3,0.1,0.4,0.1c0.1,0,0.2,0,0.3-0.1
c0.1-0.1,0.2-0.1,0.2-0.3l0.6-1.1c-0.5-0.4-1-0.8-1.7-1c-0.6-0.2-1.4-0.4-2.1-0.4c-0.7,0-1.3,0.1-1.8,0.3s-1,0.5-1.3,0.8
s-0.6,0.7-0.8,1.2c-0.2,0.4-0.3,0.9-0.3,1.4c0,0.6,0.1,1.1,0.3,1.5c0.2,0.4,0.4,0.7,0.7,1c0.3,0.3,0.6,0.5,1,0.7s0.7,0.3,1.1,0.4
s0.7,0.2,1.1,0.3c0.4,0.1,0.7,0.2,1,0.4c0.3,0.1,0.5,0.3,0.7,0.5s0.3,0.5,0.3,0.8c0,0.6-0.2,1.1-0.6,1.4s-0.9,0.5-1.6,0.5
c-0.5,0-0.8-0.1-1.2-0.2s-0.6-0.3-0.8-0.4c-0.2-0.2-0.4-0.3-0.6-0.4c-0.2-0.1-0.3-0.2-0.5-0.2c-0.1,0-0.2,0-0.3,0.1
c-0.1,0.1-0.2,0.1-0.2,0.2l-0.7,1.2c0.3,0.3,0.5,0.5,0.9,0.7c0.3,0.2,0.7,0.4,1,0.5c0.4,0.2,0.8,0.3,1.2,0.3s0.8,0.1,1.2,0.1
c0.7,0,1.4-0.1,1.9-0.3c0.6-0.2,1-0.5,1.4-0.9c0.4-0.4,0.7-0.8,0.9-1.3c0.2-0.5,0.3-1.1,0.3-1.7c0-0.5-0.1-1-0.3-1.4
S468.3,310.7,468,310.4z"/>
<path d="M484,303.8c-0.1,0-0.1,0-0.2,0c-0.1,0-0.1,0.1-0.2,0.1c-0.1,0.1-0.1,0.1-0.2,0.2l-3.8,7.2c-0.1,0.2-0.2,0.4-0.3,0.6
s-0.2,0.4-0.3,0.6c-0.1-0.2-0.2-0.4-0.3-0.6s-0.2-0.4-0.3-0.6l-3.9-7.2c0-0.1-0.1-0.2-0.1-0.2c-0.1-0.1-0.1-0.1-0.2-0.1
c-0.1,0-0.1,0-0.2,0c-0.1,0-0.2,0-0.3,0H472v13h2.1v-8.4c0-0.2,0-0.3,0-0.5c0-0.2,0-0.4,0-0.6l4,7.4c0.2,0.4,0.5,0.5,0.9,0.5h0.3
c0.4,0,0.7-0.2,0.9-0.5l3.9-7.4c0,0.4-0.1,0.8-0.1,1.1v8.4h2.1v-13h-1.8C484.1,303.8,484.1,303.8,484,303.8z"/>
<rect x="489.9" y="303.8" width="2.4" height="13"/>
<path d="M505,311.7c0,0.2,0,0.4,0,0.6c0,0.2,0,0.4,0,0.6l-6.8-8.7c-0.1-0.1-0.1-0.2-0.2-0.2c-0.1-0.1-0.1-0.1-0.2-0.1
c-0.1,0-0.1,0-0.2-0.1c-0.1,0-0.2,0-0.3,0h-1.3v13h2.1v-8c0-0.3,0-0.7-0.1-1.1l6.8,8.7c0.1,0.2,0.2,0.3,0.4,0.3
c0.1,0.1,0.3,0.1,0.5,0.1h1.2v-13H505V311.7z"/>
<rect x="510.9" y="303.8" width="2.4" height="13"/>
<path d="M524,310.4c-0.3-0.3-0.6-0.5-1-0.6c-0.4-0.2-0.7-0.3-1.1-0.5s-0.7-0.2-1.1-0.4c-0.4-0.1-0.7-0.2-1-0.4
c-0.3-0.1-0.5-0.3-0.7-0.5s-0.3-0.5-0.3-0.8c0-0.2,0-0.5,0.1-0.7c0.1-0.2,0.2-0.4,0.4-0.5c0.2-0.1,0.4-0.3,0.6-0.3s0.5-0.1,0.9-0.1
c0.4,0,0.7,0,1,0.1c0.3,0.1,0.5,0.2,0.7,0.3c0.2,0.1,0.4,0.2,0.5,0.3c0.1,0.1,0.3,0.1,0.4,0.1c0.1,0,0.2,0,0.3-0.1
c0.1-0.1,0.2-0.1,0.2-0.3l0.6-1.1c-0.5-0.4-1-0.8-1.7-1c-0.6-0.2-1.4-0.4-2.1-0.4c-0.7,0-1.3,0.1-1.8,0.3c-0.5,0.2-1,0.5-1.3,0.8
c-0.4,0.3-0.6,0.7-0.8,1.2c-0.2,0.4-0.3,0.9-0.3,1.4c0,0.6,0.1,1.1,0.3,1.5c0.2,0.4,0.4,0.7,0.7,1c0.3,0.3,0.6,0.5,1,0.7
c0.4,0.2,0.7,0.3,1.1,0.4s0.7,0.2,1.1,0.3c0.4,0.1,0.7,0.2,1,0.4c0.3,0.1,0.5,0.3,0.7,0.5s0.3,0.5,0.3,0.8c0,0.6-0.2,1.1-0.6,1.4
s-0.9,0.5-1.6,0.5c-0.5,0-0.8-0.1-1.2-0.2c-0.3-0.1-0.6-0.3-0.8-0.4c-0.2-0.2-0.4-0.3-0.6-0.4s-0.3-0.2-0.5-0.2
c-0.1,0-0.2,0-0.3,0.1s-0.2,0.1-0.2,0.2l-0.7,1.2c0.3,0.3,0.5,0.5,0.9,0.7s0.7,0.4,1,0.5c0.4,0.2,0.8,0.3,1.2,0.3
c0.4,0.1,0.8,0.1,1.2,0.1c0.7,0,1.4-0.1,1.9-0.3s1-0.5,1.4-0.9c0.4-0.4,0.7-0.8,0.9-1.3c0.2-0.5,0.3-1.1,0.3-1.7
c0-0.5-0.1-1-0.3-1.4S524.2,310.7,524,310.4z"/>
<polygon points="526.7,305.8 530.6,305.8 530.6,316.8 533.1,316.8 533.1,305.8 537,305.8 537,303.8 526.7,303.8 "/>
<polygon points="539.6,316.8 547.8,316.8 547.8,314.9 542,314.9 542,311.2 546.6,311.2 546.6,309.3 542,309.3 542,305.7
547.8,305.7 547.8,303.8 539.6,303.8 "/>
<path d="M557.4,311.6c-0.1-0.1-0.3-0.2-0.4-0.3c0.5-0.1,0.9-0.3,1.2-0.6c0.4-0.2,0.7-0.5,0.9-0.8s0.4-0.7,0.6-1.1
c0.1-0.4,0.2-0.8,0.2-1.2c0-0.6-0.1-1.1-0.3-1.5c-0.2-0.5-0.5-0.9-0.9-1.2c-0.4-0.3-0.9-0.6-1.6-0.8c-0.6-0.2-1.4-0.3-2.3-0.3h-4
v13h2.4v-5.1h1c0.2,0,0.4,0,0.5,0.1c0.1,0.1,0.2,0.2,0.3,0.3l2.7,4.2c0.2,0.3,0.5,0.5,0.9,0.5h2.2l-3.3-4.8
C557.6,311.8,557.5,311.7,557.4,311.6z M556,309.8c-0.3,0.1-0.7,0.2-1.2,0.2h-1.5v-4.3h1.5c0.9,0,1.6,0.2,2,0.5
c0.4,0.4,0.7,0.9,0.7,1.5c0,0.3-0.1,0.6-0.2,0.9c-0.1,0.3-0.3,0.5-0.5,0.7C556.6,309.6,556.3,309.7,556,309.8z"/>
<rect x="563.3" y="303.8" width="2.4" height="13"/>
<polygon points="569.6,316.8 577.8,316.8 577.8,314.9 572,314.9 572,311.2 576.5,311.2 576.5,309.3 572,309.3 572,305.7
577.8,305.7 577.8,303.8 569.6,303.8 "/>
<polygon points="579.6,303.8 579.6,305.8 583.6,305.8 583.6,316.8 586,316.8 586,305.8 589.9,305.8 589.9,303.8 "/>
</g>
</svg>
